<svg xmlns="http://www.w3.org/2000/svg" viewBox="0 0 600 400" style="background-color: white; font-family: sans-serif;">
    <!-- Title -->
    <text x="300.0" y="35" text-anchor="middle" font-size="20" font-weight="bold" fill="#333">Live Cluster Heap Breakdown (2,000 ConfigMaps)</text>
    
    <!-- Y Axis Label -->
    <text x="-200.0" y="25" transform="rotate(-90)" text-anchor="middle" font-size="14" fill="#666">Heap Memory (MB)</text>
    
    <!-- Axes -->
    <line x1="80" y1="340" x2="580" y2="340" stroke="#ccc" stroke-width="2"/>
    <line x1="80" y1="60" x2="80" y2="340" stroke="#ccc" stroke-width="2"/>
    
    <!-- Legend -->
    <rect x="400" y="45" width="15" height="15" fill="#E24A33" rx="2" ry="2"/>
    <text x="420" y="57" font-size="12" fill="#333">Baseline ([]byte)</text>
    <rect x="510" y="45" width="15" height="15" fill="#348ABD" rx="2" ry="2"/>
    <text x="530" y="57" font-size="12" fill="#333">Optimized (String)</text>
    <rect x="111.25" y="106.66666666666666" width="87.5" height="233.33333333333334" fill="#E24A33" rx="4" ry="4"/>
<text x="155.0" y="96.66666666666666" text-anchor="middle" font-size="12" font-weight="bold" fill="#333">146.5 MB</text>
<rect x="211.25" y="114.31171786120592" width="87.5" height="225.68828213879408" fill="#348ABD" rx="4" ry="4"/>
<text x="255.0" y="104.31171786120592" text-anchor="middle" font-size="12" font-weight="bold" fill="#333">141.7 MB</text>
<text x="205.0" y="365" text-anchor="middle" font-size="14" font-weight="bold" fill="#333">Total Heap (inuse_space)</text>
<rect x="361.25" y="332.03640500568827" width="87.5" height="7.963594994311719" fill="#E24A33" rx="4" ry="4"/>
<text x="405.0" y="322.03640500568827" text-anchor="middle" font-size="12" font-weight="bold" fill="#333">5.0 MB</text>
<rect x="461.25" y="338" width="87.5" height="2" fill="#348ABD" rx="4" ry="4"/>
<text x="505.0" y="328" text-anchor="middle" font-size="12" font-weight="bold" fill="#333">0.0 MB</text>
<text x="455.0" y="365" text-anchor="middle" font-size="14" font-weight="bold" fill="#333">FieldsV1.Unmarshal Allocations</text>
</svg>