<svg xmlns="http://www.w3.org/2000/svg" viewBox="0 0 800 500" style="background-color: white; font-family: sans-serif;">
    <!-- Title -->
    <text x="400.0" y="40" text-anchor="middle" font-size="22" font-weight="bold" fill="#333">Total Heap Scaling by Pod Complexity (20,000 Pods)</text>
    
    <!-- Y Axis Label -->
    <text x="-250.0" y="30" transform="rotate(-90)" text-anchor="middle" font-size="16" fill="#666">Total API Server Heap (MB)</text>
    
    <!-- X Axis Label -->
    <text x="400.0" y="480" text-anchor="middle" font-size="16" fill="#666">Additional Config Fields per Pod</text>
    
    <!-- Legend -->
    <line x1="260.0" y1="65" x2="290.0" y2="65" stroke="#E24A33" stroke-width="3"/>
    <circle cx="275.0" cy="65" r="5" fill="#E24A33"/>
    <text x="300.0" y="70" font-size="14" fill="#333">master ([]byte)</text>
    
    <line x1="430.0" y1="65" x2="460.0" y2="65" stroke="#348ABD" stroke-width="3"/>
    <circle cx="445.0" cy="65" r="5" fill="#348ABD"/>
    <text x="470.0" y="70" font-size="14" fill="#333">experimental (stringhandle)</text>
    
    <!-- Grid and Axes -->
    <line x1="100" y1="420.0" x2="760" y2="420.0" stroke="#eee" stroke-width="1"/>
<text x="90" y="425.0" text-anchor="end" font-size="12" fill="#666">1300</text>
<line x1="100" y1="352.0" x2="760" y2="352.0" stroke="#eee" stroke-width="1"/>
<text x="90" y="357.0" text-anchor="end" font-size="12" fill="#666">2103</text>
<line x1="100" y1="284.0" x2="760" y2="284.0" stroke="#eee" stroke-width="1"/>
<text x="90" y="289.0" text-anchor="end" font-size="12" fill="#666">2907</text>
<line x1="100" y1="216.0" x2="760" y2="216.0" stroke="#eee" stroke-width="1"/>
<text x="90" y="221.0" text-anchor="end" font-size="12" fill="#666">3710</text>
<line x1="100" y1="148.0" x2="760" y2="148.0" stroke="#eee" stroke-width="1"/>
<text x="90" y="153.0" text-anchor="end" font-size="12" fill="#666">4514</text>
<line x1="100" y1="80.0" x2="760" y2="80.0" stroke="#eee" stroke-width="1"/>
<text x="90" y="85.0" text-anchor="end" font-size="12" fill="#666">5317</text>
<line x1="100.0" y1="420" x2="100.0" y2="425" stroke="#ccc" stroke-width="2"/>
<text x="100.0" y="440" text-anchor="middle" font-size="12" fill="#666">+0</text>
<line x1="182.5" y1="420" x2="182.5" y2="425" stroke="#ccc" stroke-width="2"/>
<text x="182.5" y="440" text-anchor="middle" font-size="12" fill="#666">+75</text>
<line x1="265.0" y1="420" x2="265.0" y2="425" stroke="#ccc" stroke-width="2"/>
<text x="265.0" y="440" text-anchor="middle" font-size="12" fill="#666">+150</text>
<line x1="430.0" y1="420" x2="430.0" y2="425" stroke="#ccc" stroke-width="2"/>
<text x="430.0" y="440" text-anchor="middle" font-size="12" fill="#666">+300</text>
<line x1="760.0" y1="420" x2="760.0" y2="425" stroke="#ccc" stroke-width="2"/>
<text x="760.0" y="440" text-anchor="middle" font-size="12" fill="#666">+600</text>

    <line x1="100" y1="420" x2="760" y2="420" stroke="#ccc" stroke-width="2"/>
    <line x1="100" y1="80" x2="100" y2="420" stroke="#ccc" stroke-width="2"/>
    <path d="M 100.0 411.53762583114826 L 182.5 391.523264684397 L 265.0 328.8890022736408 L 430.0 273.03225533471806 L 760.0 120.91007856318845 L 760.0 195.92564062039165 L 430.0 320.5180217458127 L 265.0 357.17702664527843 L 182.5 406.90955339820323 L 100.0 411.53762583114826 Z" fill="#348ABD" opacity="0.15" />
<path d="M 100.0 411.53762583114826 L 182.5 391.523264684397 L 265.0 328.8890022736408 L 430.0 273.03225533471806 L 760.0 120.91007856318845 " fill="none" stroke="#E24A33" stroke-width="3" />
<path d="M 100.0 411.53762583114826 L 182.5 406.90955339820323 L 265.0 357.17702664527843 L 430.0 320.5180217458127 L 760.0 195.92564062039165 " fill="none" stroke="#348ABD" stroke-width="3" />
<circle cx="100.0" cy="411.53762583114826" r="6" fill="#E24A33" stroke="white" stroke-width="2"/>
<text x="100.0" y="399.53762583114826" text-anchor="middle" font-size="12" font-weight="bold" fill="#E24A33">1400.0 MB</text>
<circle cx="182.5" cy="391.523264684397" r="6" fill="#E24A33" stroke="white" stroke-width="2"/>
<text x="182.5" y="379.523264684397" text-anchor="middle" font-size="12" font-weight="bold" fill="#E24A33">1636.5 MB</text>
<circle cx="265.0" cy="328.8890022736408" r="6" fill="#E24A33" stroke="white" stroke-width="2"/>
<text x="265.0" y="316.8890022736408" text-anchor="middle" font-size="12" font-weight="bold" fill="#E24A33">2376.7 MB</text>
<circle cx="430.0" cy="273.03225533471806" r="6" fill="#E24A33" stroke="white" stroke-width="2"/>
<text x="430.0" y="261.03225533471806" text-anchor="middle" font-size="12" font-weight="bold" fill="#E24A33">3036.7 MB</text>
<circle cx="760.0" cy="120.91007856318845" r="6" fill="#E24A33" stroke="white" stroke-width="2"/>
<text x="760.0" y="108.91007856318845" text-anchor="middle" font-size="12" font-weight="bold" fill="#E24A33">4834.4 MB</text>
<circle cx="100.0" cy="411.53762583114826" r="6" fill="#348ABD" stroke="white" stroke-width="2"/>
<text x="100.0" y="431.53762583114826" text-anchor="middle" font-size="12" font-weight="bold" fill="#348ABD">1400.0 MB</text>
<circle cx="182.5" cy="406.90955339820323" r="6" fill="#348ABD" stroke="white" stroke-width="2"/>
<text x="182.5" y="426.90955339820323" text-anchor="middle" font-size="12" font-weight="bold" fill="#348ABD">1454.7 MB</text>
<circle cx="265.0" cy="357.17702664527843" r="6" fill="#348ABD" stroke="white" stroke-width="2"/>
<text x="265.0" y="377.17702664527843" text-anchor="middle" font-size="12" font-weight="bold" fill="#348ABD">2042.4 MB</text>
<circle cx="430.0" cy="320.5180217458127" r="6" fill="#348ABD" stroke="white" stroke-width="2"/>
<text x="430.0" y="340.5180217458127" text-anchor="middle" font-size="12" font-weight="bold" fill="#348ABD">2475.6 MB</text>
<circle cx="760.0" cy="195.92564062039165" r="6" fill="#348ABD" stroke="white" stroke-width="2"/>
<text x="760.0" y="220.92564062039165" text-anchor="middle" font-size="12" font-weight="bold" fill="#348ABD">3947.9 MB</text>
</svg>