<svg xmlns="http://www.w3.org/2000/svg" viewBox="0 0 800 500" style="background-color: white; font-family: sans-serif;">
    <!-- Title -->
    <text x="400.0" y="40" text-anchor="middle" font-size="22" font-weight="bold" fill="#333">Total API Server Heap Memory vs. Pod Scale</text>
    
    <!-- Y Axis Label -->
    <text x="-250.0" y="30" transform="rotate(-90)" text-anchor="middle" font-size="16" fill="#666">Total API Server Heap (MB)</text>
    
    <!-- X Axis Label -->
    <text x="400.0" y="480" text-anchor="middle" font-size="16" fill="#666">Number of Duplicated Pods (Running)</text>
    
    <!-- Legend -->
    <line x1="260.0" y1="65" x2="290.0" y2="65" stroke="#E24A33" stroke-width="3"/>
    <circle cx="275.0" cy="65" r="5" fill="#E24A33"/>
    <text x="300.0" y="70" font-size="14" fill="#333">master ([]byte)</text>
    
    <line x1="430.0" y1="65" x2="460.0" y2="65" stroke="#348ABD" stroke-width="3"/>
    <circle cx="445.0" cy="65" r="5" fill="#348ABD"/>
    <text x="470.0" y="70" font-size="14" fill="#333">experimental (stringhandle)</text>
    
    <!-- Grid and Axes -->
    <line x1="100" y1="420.0" x2="760" y2="420.0" stroke="#eee" stroke-width="1"/>
<text x="90" y="425.0" text-anchor="end" font-size="12" fill="#666">1000</text>
<line x1="100" y1="352.0" x2="760" y2="352.0" stroke="#eee" stroke-width="1"/>
<text x="90" y="357.0" text-anchor="end" font-size="12" fill="#666">1471</text>
<line x1="100" y1="284.0" x2="760" y2="284.0" stroke="#eee" stroke-width="1"/>
<text x="90" y="289.0" text-anchor="end" font-size="12" fill="#666">1943</text>
<line x1="100" y1="216.00000000000006" x2="760" y2="216.00000000000006" stroke="#eee" stroke-width="1"/>
<text x="90" y="221.00000000000006" text-anchor="end" font-size="12" fill="#666">2414</text>
<line x1="100" y1="148.0" x2="760" y2="148.0" stroke="#eee" stroke-width="1"/>
<text x="90" y="153.0" text-anchor="end" font-size="12" fill="#666">2886</text>
<line x1="100" y1="80.0" x2="760" y2="80.0" stroke="#eee" stroke-width="1"/>
<text x="90" y="85.0" text-anchor="end" font-size="12" fill="#666">3357</text>
<line x1="100.0" y1="420" x2="100.0" y2="425" stroke="#ccc" stroke-width="2"/>
<text x="100.0" y="440" text-anchor="middle" font-size="12" fill="#666">50k</text>
<line x1="320.0" y1="420" x2="320.0" y2="425" stroke="#ccc" stroke-width="2"/>
<text x="320.0" y="440" text-anchor="middle" font-size="12" fill="#666">100k</text>
<line x1="760.0" y1="420" x2="760.0" y2="425" stroke="#ccc" stroke-width="2"/>
<text x="760.0" y="440" text-anchor="middle" font-size="12" fill="#666">200k</text>

    <line x1="100" y1="420" x2="760" y2="420" stroke="#ccc" stroke-width="2"/>
    <line x1="100" y1="80" x2="100" y2="420" stroke="#ccc" stroke-width="2"/>
    <path d="M 100.0 340.68783580431017 L 320.0 307.44594473087307 L 760.0 124.0185395364777 L 760.0 144.85456609035987 L 320.0 331.56837896115485 L 100.0 352.22415059641054 Z" fill="#348ABD" opacity="0.15" />
<path d="M 100.0 340.68783580431017 L 320.0 307.44594473087307 L 760.0 124.0185395364777 " fill="none" stroke="#E24A33" stroke-width="3" />
<path d="M 100.0 352.22415059641054 L 320.0 331.56837896115485 L 760.0 144.85456609035987 " fill="none" stroke="#348ABD" stroke-width="3" />
<circle cx="100.0" cy="340.68783580431017" r="6" fill="#E24A33" stroke="white" stroke-width="2"/>
<text x="100.0" y="328.68783580431017" text-anchor="middle" font-size="12" font-weight="bold" fill="#E24A33">1550 MB</text>
<circle cx="320.0" cy="307.44594473087307" r="6" fill="#E24A33" stroke="white" stroke-width="2"/>
<text x="320.0" y="295.44594473087307" text-anchor="middle" font-size="12" font-weight="bold" fill="#E24A33">1780 MB</text>
<circle cx="760.0" cy="124.0185395364777" r="6" fill="#E24A33" stroke="white" stroke-width="2"/>
<text x="760.0" y="112.0185395364777" text-anchor="middle" font-size="12" font-weight="bold" fill="#E24A33">3052 MB</text>
<circle cx="100.0" cy="352.22415059641054" r="6" fill="#348ABD" stroke="white" stroke-width="2"/>
<text x="100.0" y="372.22415059641054" text-anchor="middle" font-size="12" font-weight="bold" fill="#348ABD">1470 MB</text>
<circle cx="320.0" cy="331.56837896115485" r="6" fill="#348ABD" stroke="white" stroke-width="2"/>
<text x="320.0" y="356.56837896115485" text-anchor="middle" font-size="12" font-weight="bold" fill="#348ABD">1613 MB</text>
<circle cx="760.0" cy="144.85456609035987" r="6" fill="#348ABD" stroke="white" stroke-width="2"/>
<text x="760.0" y="169.85456609035987" text-anchor="middle" font-size="12" font-weight="bold" fill="#348ABD">2908 MB</text>
</svg>